<?xml version="1.0" standalone="no"?>
<!DOCTYPE svg PUBLIC "-//W3C//DTD SVG 20010904//EN"
 "http://www.w3.org/TR/2001/REC-SVG-20010904/DTD/svg10.dtd">
<svg version="1.0" xmlns="http://www.w3.org/2000/svg"
 width="344.000000pt" height="344.000000pt" viewBox="0 0 344.000000 344.000000"
 preserveAspectRatio="xMidYMid meet">
<metadata>
Created by potrace 1.11, written by Peter Selinger 2001-2013
</metadata>
<g transform="translate(0.000000,344.000000) scale(0.100000,-0.100000)"
fill="#000000" stroke="none">
<path d="M895 3081 l-800 -268 -3 -206 -2 -205 815 271 815 272 815 -272 815
-271 -2 205 -3 206 -805 269 c-443 147 -814 268 -825 267 -11 0 -380 -121
-820 -268z"/>
<path d="M825 2399 c-178 -20 -373 -86 -502 -170 l-63 -41 0 -103 0 -102 -32
-7 c-48 -10 -103 -50 -121 -89 -15 -32 -17 -109 -17 -811 0 -753 1 -778 20
-815 11 -22 36 -50 57 -62 l38 -24 665 -3 664 -3 26 -24 c78 -74 242 -74 320
0 l26 24 664 3 665 3 35 22 c20 12 46 40 58 61 l22 40 0 776 c0 753 -1 778
-20 815 -21 42 -69 77 -119 87 l-31 7 0 102 0 103 -52 35 c-267 175 -663 231
-1018 142 -119 -30 -241 -81 -321 -134 -34 -23 -65 -41 -69 -41 -4 0 -38 20
-76 45 -202 133 -520 197 -819 164z m396 -55 c167 -27 356 -103 459 -184 l39
-31 48 37 c70 54 234 129 344 158 345 89 729 36 996 -138 l33 -21 0 -891 0
-891 -97 48 c-284 139 -657 169 -983 79 -77 -22 -258 -103 -309 -139 l-28 -20
-38 26 c-74 50 -227 115 -343 145 -104 27 -138 31 -303 35 -274 8 -447 -25
-642 -123 -49 -24 -90 -44 -93 -44 -2 0 -4 399 -4 888 l0 887 43 26 c242 151
556 206 878 153z"/>
</g>
</svg>
