<svg width="30" height="28" fill="none" xmlns="http://www.w3.org/2000/svg"><path d="M15 27.331c-.427 0-.839-.155-1.16-.436a347.902 347.902 0 00-3.411-2.934l-.005-.004c-3.023-2.576-5.633-4.8-7.449-6.991C.945 14.516 0 12.194 0 9.656c0-2.465.845-4.739 2.38-6.403C3.933 1.568 6.064.64 8.38.64c1.732 0 3.318.547 4.714 1.627A9.644 9.644 0 0115 4.258a9.645 9.645 0 011.906-1.99C18.302 1.188 19.888.64 21.619.64c2.317 0 4.448.927 6.001 2.612C29.155 4.917 30 7.19 30 9.657c0 2.537-.945 4.86-2.975 7.308-1.816 2.192-4.426 4.416-7.448 6.991-1.033.88-2.203 1.877-3.418 2.94A1.76 1.76 0 0115 27.33zM8.38 2.398c-1.82 0-3.492.726-4.708 2.046-1.235 1.339-1.915 3.19-1.915 5.213 0 2.133.793 4.042 2.571 6.187 1.72 2.074 4.275 4.253 7.235 6.775l.006.005c1.035.882 2.208 1.881 3.428 2.949a409.452 409.452 0 013.44-2.954c2.96-2.523 5.516-4.7 7.235-6.775 1.778-2.145 2.57-4.054 2.57-6.187 0-2.023-.68-3.874-1.914-5.213-1.216-1.32-2.888-2.046-4.709-2.046-1.333 0-2.557.424-3.638 1.26-.964.745-1.635 1.687-2.028 2.346a1.1 1.1 0 01-.953.542 1.1 1.1 0 01-.953-.542c-.393-.659-1.064-1.601-2.028-2.346-1.08-.836-2.305-1.26-3.638-1.26z" fill="#000"/></svg>