<svg width="30" height="30" fill="none" xmlns="http://www.w3.org/2000/svg"><g clip-path="url(#clip0)" fill="#000"><path d="M23.712 8.712l-1.325 1.326 4.024 4.024H13.125v1.876h13.286l-4.024 4.024 1.325 1.326L30 15l-6.288-6.288z"/><path d="M20.625 28.125H1.875V1.875h18.75V3.75H22.5V.938A.937.937 0 0021.563 0H.938A.937.937 0 000 .938v28.125c0 .518.42.937.938.937h20.625c.518 0 .937-.42.937-.938V26.25h-1.875v1.875z"/></g><defs><clipPath id="clip0"><path fill="#fff" d="M0 0h30v30H0z"/></clipPath></defs></svg>