<svg aria-hidden="true" style="position: absolute; width: 0; height: 0; overflow: hidden;" version="1.1" xmlns="http://www.w3.org/2000/svg" xmlns:xlink="http://www.w3.org/1999/xlink">
<defs>
<symbol id="icon-arrow" viewBox="0 0 32 32">
<path fill="#fff" style="fill: var(--color1, #fff)" d="M29.817 9.558l-9.375-9.375c-0.113-0.113-0.269-0.183-0.442-0.183-0.345 0-0.625 0.28-0.625 0.625 0 0.173 0.070 0.329 0.183 0.442l8.308 8.308h-27.24c-0.345 0-0.625 0.28-0.625 0.625s0.28 0.625 0.625 0.625v0h27.24l-8.308 8.308c-0.113 0.113-0.183 0.269-0.183 0.442 0 0.345 0.28 0.625 0.625 0.625 0.173 0 0.329-0.070 0.442-0.183v0l9.375-9.375c0.113-0.113 0.183-0.269 0.183-0.442s-0.070-0.329-0.183-0.442v0z"></path>
</symbol>
<symbol id="icon-cross" viewBox="0 0 32 32">
<path d="M31.556 3.579l-3.132-3.134-12.423 12.421-12.421-12.421-3.134 3.134 12.423 12.421-12.423 12.423 3.134 3.132 12.421-12.423 12.423 12.423 3.132-3.132-12.421-12.423 12.421-12.421z"></path>
</symbol>
<symbol id="icon-heart" viewBox="0 0 34 32">
<path d="M17.143 31.235c-0.488 0-0.959-0.177-1.326-0.498-0.8-0.708-2.068-1.804-3.344-2.892l-0.56-0.466c-3.455-2.944-6.438-5.486-8.513-7.99-2.32-2.8-3.4-5.454-3.4-8.354 0-2.817 0.966-5.416 2.72-7.318 1.775-1.926 4.21-2.986 6.857-2.986 1.979 0 3.792 0.625 5.387 1.859 0.834 0.656 1.552 1.405 2.156 2.243l0.022 0.033c0.626-0.87 1.345-1.619 2.155-2.256l0.024-0.018c1.595-1.234 3.408-1.861 5.386-1.861 2.648 0 5.083 1.059 6.858 2.985 1.754 1.903 2.72 4.501 2.72 7.32 0 2.899-1.080 5.554-3.4 8.352-2.075 2.505-5.058 5.047-8.512 7.99-1.181 1.006-2.518 2.145-3.906 3.36-0.352 0.308-0.815 0.496-1.323 0.496-0.001 0-0.001 0-0.002 0h0zM9.577 2.741c-2.080 0-3.991 0.83-5.381 2.338-1.411 1.53-2.189 3.646-2.189 5.958 0 2.438 0.906 4.619 2.938 7.071 1.966 2.37 4.886 4.861 8.269 7.743l0.007 0.006c1.183 1.008 2.523 2.15 3.918 3.37 0.715-0.634 1.994-1.737 3.28-2.834l0.652-0.543c3.383-2.883 6.304-5.371 8.269-7.743 2.032-2.451 2.937-4.633 2.937-7.071 0-2.312-0.777-4.427-2.187-5.958-1.39-1.509-3.301-2.338-5.382-2.338-1.523 0-2.922 0.485-4.158 1.44-1.102 0.851-1.869 1.928-2.318 2.681-0.223 0.373-0.624 0.619-1.083 0.619-0.002 0-0.004 0-0.006 0h0c-0.002 0-0.004 0-0.006 0-0.459 0-0.861-0.246-1.080-0.614l-0.003-0.006c-0.449-0.753-1.216-1.83-2.318-2.681-1.234-0.955-2.634-1.44-4.158-1.44z"></path>
</symbol>
<symbol id="icon-heart-fill" viewBox="0 0 34 34">
<path d="M17.143 31.771l-2.4-2.4c-8.914-7.886-14.743-13.2-14.743-19.714 0-5.314 4.114-9.429 9.429-9.429 2.914 0 5.829 1.371 7.714 3.6 1.886-2.229 4.8-3.6 7.714-3.6 5.314 0 9.429 4.114 9.429 9.429 0 6.514-5.829 11.829-14.743 19.714l-2.4 2.4z"></path>
</symbol>
<symbol id="icon-menu" viewBox="0 0 48 32">
<path d="M1.5 31h45v-5h-45v5zM1.5 18.5h45v-5h-45v5zM1.5 1v5h45v-5h-45z"></path>
</symbol>
<symbol id="icon-sign-out" viewBox="0 0 32 32">
<path d="M25.293 9.293l-1.413 1.414 4.292 4.292h-14.172v2.001h14.172l-4.292 4.292 1.413 1.414 6.707-6.707-6.707-6.707z"></path>
<path d="M22 30h-20v-28h20v2h2v-2.999c0-0 0-0.001 0-0.001 0-0.552-0.447-0.999-0.999-0.999 0 0 0 0 0 0h-22c-0 0-0.001 0-0.001 0-0.552 0-0.999 0.447-0.999 0.999 0 0 0 0.001 0 0.001v-0 30c0 0.553 0.448 0.999 1.001 0.999h22c0.553 0 0.999-0.448 0.999-1.001v-2.999h-2v2z"></path>
</symbol>
</defs>
</svg>
